<?xml version="1.0" encoding="UTF-8"?>
<!DOCTYPE svg PUBLIC "-//W3C//DTD SVG Tiny PS//EN" "http://www.w3.org/Graphics/SVG/1.1/DTD/svg11-tiny-ps.dtd">
<svg xmlns="http://www.w3.org/2000/svg"
     version="1.2"
     baseProfile="tiny-ps"
     viewBox="0 0 512 512"
     width="512"
     height="512"
     xml:space="preserve">
  <title>Mohand</title>

  <defs>
    <linearGradient id="bgGrad" x1="0%" y1="0%" x2="100%" y2="100%">
      <stop offset="0%" stop-color="#1A1A2E" stop-opacity="1"/>
      <stop offset="100%" stop-color="#0F0F1E" stop-opacity="1"/>
    </linearGradient>
    <linearGradient id="hexGrad" x1="0%" y1="0%" x2="100%" y2="100%">
      <stop offset="0%" stop-color="#FF7A00" stop-opacity="1"/>
      <stop offset="100%" stop-color="#E55A00" stop-opacity="1"/>
    </linearGradient>
    <linearGradient id="accentGrad" x1="0%" y1="0%" x2="100%" y2="0%">
      <stop offset="0%" stop-color="#FF7A00" stop-opacity="1"/>
      <stop offset="100%" stop-color="#FFB347" stop-opacity="1"/>
    </linearGradient>
  </defs>

  <!-- Background -->
  <rect x="0" y="0" width="512" height="512" rx="80" ry="80" fill="url(#bgGrad)"/>

  <!-- Grid dots -->
  <circle cx="80" cy="80" r="2" fill="#FF7A00" fill-opacity="0.2"/>
  <circle cx="432" cy="80" r="2" fill="#FF7A00" fill-opacity="0.2"/>
  <circle cx="80" cy="432" r="2" fill="#FF7A00" fill-opacity="0.2"/>
  <circle cx="432" cy="432" r="2" fill="#FF7A00" fill-opacity="0.2"/>

  <!-- Outer hex ring -->
  <polygon points="256,80 340,128 340,224 256,272 172,224 172,128"
           fill="none" stroke="#FF7A00" stroke-width="3" stroke-opacity="0.4"/>

  <!-- Inner hex -->
  <polygon points="256,104 322,142 322,218 256,256 190,218 190,142"
           fill="url(#hexGrad)" fill-opacity="0.12"/>

  <!-- M -->
  <rect x="196" y="136" width="16" height="102" fill="#FFFFFF"/>
  <rect x="300" y="136" width="16" height="102" fill="#FFFFFF"/>
  <polygon points="212,136 228,136 256,174 228,174" fill="#FFFFFF"/>
  <polygon points="300,136 284,136 256,174 284,174" fill="#FFFFFF"/>
  <polygon points="246,136 266,136 256,156" fill="#FF7A00"/>

  <!-- Accent line -->
  <rect x="190" y="248" width="132" height="4" rx="2" ry="2" fill="url(#accentGrad)"/>

  <!-- Hex corner dots -->
  <circle cx="256" cy="80" r="5" fill="#FF7A00"/>
  <circle cx="340" cy="128" r="4" fill="#FF7A00" fill-opacity="0.7"/>
  <circle cx="340" cy="224" r="4" fill="#FF7A00" fill-opacity="0.7"/>
  <circle cx="256" cy="272" r="5" fill="#FF7A00"/>
  <circle cx="172" cy="224" r="4" fill="#FF7A00" fill-opacity="0.7"/>
  <circle cx="172" cy="128" r="4" fill="#FF7A00" fill-opacity="0.7"/>
</svg>
